<svg width="48" height="47" viewBox="0 0 48 47" fill="none" xmlns="http://www.w3.org/2000/svg">
<path d="M24.7023 0.694092C24.8897 0.731031 25.0397 0.731031 25.2271 0.767971C26.3891 0.84185 27.5511 0.989608 28.6757 1.24818C29.9127 1.50676 31.1496 1.87616 32.3117 2.31943C33.5487 2.79964 34.7107 3.35374 35.8352 4.01865C37.0347 4.7205 38.1967 5.53317 39.2463 6.45666C40.5583 7.60178 41.7203 8.85773 42.7699 10.2245C43.5195 11.2219 44.1943 12.2931 44.7565 13.4382C45.6562 15.2483 46.3309 17.1322 46.7432 19.1269C46.9306 20.0504 47.0806 21.0108 47.1181 21.9713C47.1181 22.3037 47.1555 22.6362 47.1555 22.9686C47.1555 23.1903 47.193 23.4488 47.193 23.6705C47.1555 24.9634 47.0806 26.2562 46.8557 27.5491C46.6308 28.7312 46.3309 29.9132 45.9186 31.0584C44.944 33.7919 43.4446 36.3407 41.4954 38.5202C39.6586 40.5888 37.4845 42.3249 35.048 43.6548C32.8851 44.8307 30.5433 45.654 28.1134 46.0928C27.2887 46.2405 26.4266 46.3883 25.5644 46.4252C25.3395 46.4252 25.0772 46.4622 24.8522 46.4622C24.8148 46.4622 24.7398 46.4991 24.7023 46.4991H22.4907C22.4532 46.4991 22.4158 46.4622 22.3783 46.4622C21.4786 46.4252 20.5415 46.3144 19.6419 46.1666C18.2925 45.945 16.943 45.6125 15.6311 45.1693C13.5694 44.4674 11.6202 43.4701 9.85843 42.251C8.43402 41.2537 7.12206 40.1086 5.96004 38.8526C5.0979 37.9291 4.34821 36.9318 3.67348 35.8975C2.69889 34.4199 1.91171 32.7945 1.31196 31.1323C0.82466 29.7655 0.449814 28.3987 0.262392 26.9581C0.149938 26.2562 0.112454 25.5544 0.0374845 24.8525C0.0374845 24.7787 0 24.7417 0 24.6678V22.5623C0 22.5253 0.0374845 22.4515 0.0374845 22.4145C0.0749691 21.9343 0.112454 21.4541 0.187423 20.9739C0.299876 19.7918 0.562268 18.6467 0.862144 17.5385C1.23699 16.2456 1.6868 14.9897 2.28656 13.8076C2.84882 12.6625 3.48606 11.5912 4.19827 10.5569C4.91047 9.52264 5.73513 8.56221 6.63476 7.67566C7.58351 6.70453 8.62545 5.8262 9.74598 5.05295C11.0579 4.12947 12.4823 3.3168 13.9817 2.68883C15.3687 2.09779 16.8306 1.61758 18.2925 1.28512C19.492 1.02655 20.7289 0.84185 21.9659 0.767971C22.1534 0.767971 22.3033 0.731031 22.4907 0.694092H24.7023ZM45.0189 25.4436C45.0564 18.0187 42.7324 12.8841 39.1339 9.22712C35.0106 5.08989 29.9501 2.87352 24.0276 2.7627C18.1425 2.65189 13.0071 4.57274 8.77138 8.56221C4.49814 12.5517 2.28656 17.4277 2.13662 23.1903C2.02416 28.9159 4.01085 33.9027 8.09666 38.003C12.1825 42.1402 17.2429 44.3197 23.1654 44.4305C29.013 44.5413 34.1484 42.6204 38.3842 38.6679C42.8073 34.5676 44.944 29.5069 45.0189 25.4436ZM32.9114 23.5966L34.1109 24.7417L34.6357 25.2589C34.7482 25.3697 34.7856 25.4805 34.7856 25.6283V32.4251C34.7856 32.5729 34.7482 32.6837 34.6357 32.7945C34.1049 33.2807 33.5922 33.7859 33.0988 34.3091C32.9864 34.4199 32.9114 34.4568 32.7615 34.4568H12.5198V12.8103H32.6865C32.8739 12.8103 32.9864 12.8472 33.1363 12.995L34.6732 14.5095C34.7107 14.5464 34.7482 14.5834 34.7856 14.6572C34.8231 14.6942 34.8231 14.768 34.8231 14.8419V21.7496C34.8231 21.8604 34.7856 21.9713 34.6732 22.0451C34.1548 22.519 33.6547 23.0119 33.1738 23.5227C33.0614 23.4488 32.9864 23.5227 32.9114 23.5966ZM30.1001 30.7998C30.1001 30.7629 30.1001 30.7259 30.1376 30.7259V26.4409C30.1376 26.3301 30.1001 26.2932 30.0251 26.2193L29.3504 25.5913C29.2379 25.4805 29.163 25.4436 29.013 25.4436H26.0518C26.0892 25.5544 26.0892 25.6283 26.1267 25.7391L27.1388 28.6573C27.1388 28.6942 27.1763 28.7681 27.1763 28.842L23.3529 26.5148L19.5294 28.842L19.492 28.8051L20.9164 24.6309L17.1304 21.8604V30.7998H30.1001ZM17.1304 21.7866H21.6661C21.891 21.7866 21.891 21.7866 21.9659 21.5649L23.2404 17.7971C23.2779 17.7232 23.2779 17.6493 23.3529 17.5385L24.8148 21.7496H29.088C29.2005 21.7496 29.2754 21.7127 29.3504 21.6388L30.0251 20.9739C30.0626 20.9369 30.1001 20.9 30.1376 20.8261C30.175 20.7522 30.175 20.7153 30.175 20.6414V16.3564C30.1376 16.3564 30.1376 16.3195 30.1001 16.3195H17.2429L17.2054 16.3564L17.1304 21.7866Z" fill="white"/>
</svg>
