<svg width="60" height="60" viewBox="0 0 60 60" fill="none" xmlns="http://www.w3.org/2000/svg">
<path d="M4.57764e-05 13.0647C0.724411 15.4641 1.46689 17.8595 2.18281 20.2628C4.08387 26.6351 5.97969 33.0074 7.87029 39.3797C8.29405 40.8102 8.84457 41.2446 10.2329 41.2446H37.2929C37.6816 41.2446 38.1669 41.0976 38.4313 41.294C38.6957 41.4904 38.7235 42.0288 38.8539 42.4189L39.9235 45.6428C40.165 46.371 40.165 46.3723 39.4756 46.3723H33.9221C26.0773 46.3723 18.2328 46.3723 10.3887 46.3723C10.1001 46.3642 9.8114 46.3816 9.52547 46.4244C9.17078 46.4894 8.84782 46.6844 8.61113 46.9763C8.37445 47.2682 8.23857 47.6392 8.22644 48.0265C8.19867 48.7847 8.66227 49.5351 9.37336 49.6859C9.93232 49.8056 10.5215 49.7614 11.0961 49.7991C11.2188 49.8177 11.3399 49.8468 11.4583 49.8862C11.4109 49.9948 11.3568 50.1 11.2965 50.2009C10.082 51.9956 9.84057 53.9333 10.5058 56.0335C11.6937 59.7906 16.3913 61.2614 19.2477 58.758C21.8011 56.5303 22.2502 53.0867 20.3729 50.2256C20.3078 50.108 20.2517 49.9849 20.2051 49.8576C20.3316 49.829 20.4599 49.8099 20.589 49.8004C24.3661 49.8004 28.1437 49.8004 31.9217 49.8004C32.0656 49.8146 32.2081 49.8416 32.3479 49.881C32.2778 50.0202 32.2163 50.1658 32.1342 50.2972C30.7784 52.4585 30.6166 54.7097 31.8456 56.9673C33.0082 59.1026 34.8276 60.1482 37.1094 59.9831C39.3392 59.8218 40.9992 58.5525 41.9155 56.3521C42.7944 54.2376 42.5481 52.1906 41.3119 50.2842C41.2338 50.1495 41.1628 50.0101 41.0994 49.8667C41.2427 49.8363 41.3874 49.8142 41.5328 49.8004C41.7634 49.7887 41.9952 49.8004 42.2258 49.8004C43.6033 49.7692 44.3035 48.7132 43.8448 47.3126C43.0492 44.8898 42.2343 42.4748 41.4206 40.0599C41.161 39.29 41.027 38.4395 40.2459 37.9947C40.1758 37.9544 40.2145 37.589 40.2748 37.4017C41.2302 34.4028 42.1928 31.4065 43.1627 28.4128C45.3559 21.6001 47.5467 14.7856 49.7351 7.96945C49.7902 7.7655 49.8909 7.57921 50.0284 7.42687C50.1658 7.27453 50.3358 7.16076 50.5234 7.09553C52.913 6.10631 55.2954 5.09888 57.6705 4.07324C58.0791 3.90449 58.4495 3.64379 58.7571 3.30856C59.345 2.62841 59.3486 1.64526 58.8693 0.889685C58.3635 0.0924966 57.4761 -0.215715 56.5659 0.15752C54.8938 0.840267 53.2326 1.55943 51.5677 2.26428C50.4268 2.74936 49.286 3.26695 48.133 3.71431C47.2795 4.04333 46.77 4.64024 46.496 5.56358C46.0674 7.0032 45.5482 8.41291 45.1402 9.85513C44.9712 10.4507 44.7031 10.5782 44.1671 10.5782C30.2311 10.5669 16.2947 10.5613 2.35786 10.5613C1.18559 10.5613 0.400864 11.0086 4.57764e-05 12.1986V13.0647ZM37.7396 14.6669C39.4913 14.6669 41.2407 14.6864 42.9936 14.6552C43.5236 14.6448 43.5442 14.8099 43.3812 15.2794C42.9779 16.442 42.6037 17.6202 42.2475 18.7972C42.1413 19.1483 42.0061 19.2835 41.6439 19.2809C38.5645 19.2653 35.4852 19.2653 32.4058 19.2809C32.034 19.2809 31.906 19.1756 31.9144 18.7608C31.9386 17.5799 31.941 16.3978 31.9144 15.2157C31.9048 14.7813 32.0231 14.6552 32.4287 14.6604C34.1974 14.6799 35.9685 14.6669 37.7396 14.6669ZM10.0627 14.6669C11.7384 14.6669 13.4141 14.6786 15.0898 14.6578C15.4653 14.6578 15.592 14.7683 15.5836 15.178C15.5619 16.3588 15.5667 17.5422 15.5836 18.7243C15.5836 19.1015 15.522 19.2796 15.1128 19.277C12.1654 19.2597 9.21882 19.2597 6.27306 19.277C5.96883 19.277 5.83723 19.1665 5.7491 18.8531C5.4002 17.6254 5.03923 16.4017 4.64928 15.1897C4.49716 14.7176 4.62875 14.6513 5.03802 14.6565C6.71251 14.6799 8.38701 14.6669 10.0627 14.6669ZM23.746 28.6378C22.4361 28.6378 21.1262 28.6248 19.8163 28.6456C19.4686 28.6456 19.3455 28.552 19.3503 28.1619C19.3684 26.7313 19.366 25.3008 19.3503 23.8703C19.3503 23.5088 19.4348 23.3566 19.8018 23.3592C22.4216 23.3722 25.0414 23.3722 27.6612 23.3592C28.0149 23.3592 28.1212 23.4763 28.1163 23.8547C28.0982 25.2852 28.0934 26.7157 28.1163 28.1462C28.1248 28.5845 27.9642 28.6508 27.6129 28.6456C26.3332 28.6261 25.0426 28.6378 23.746 28.6378ZM36.3331 23.3618C37.643 23.3618 38.9541 23.3735 40.264 23.3553C40.6793 23.3553 40.7469 23.4646 40.6081 23.8885C40.1251 25.3281 39.6603 26.7782 39.21 28.2334C39.1147 28.5403 38.9818 28.6469 38.68 28.6443C36.5806 28.6313 34.4799 28.6261 32.3805 28.6443C31.9784 28.6443 31.9096 28.4896 31.9144 28.1072C31.9313 26.6962 31.935 25.2852 31.9144 23.8742C31.9144 23.4607 32.0352 23.3449 32.4058 23.354C33.7133 23.3748 35.0232 23.3618 36.3331 23.3618ZM23.7665 19.2744C22.4772 19.2744 21.189 19.2536 19.9032 19.2861C19.459 19.2978 19.3479 19.1405 19.3575 18.6866C19.3829 17.5071 19.3793 16.325 19.3575 15.1441C19.3503 14.754 19.4867 14.6604 19.8284 14.663C22.4441 14.676 25.0599 14.676 27.6757 14.663C28.0379 14.663 28.1308 14.7852 28.1248 15.1584C28.1055 16.3601 28.1019 17.5617 28.1248 18.7634C28.1332 19.1808 28.0041 19.29 27.6322 19.2835C26.3441 19.2588 25.0547 19.2744 23.7665 19.2744ZM11.311 23.3618C12.5799 23.3618 13.8463 23.3722 15.1188 23.3553C15.4641 23.3553 15.5908 23.4633 15.586 23.8495C15.5691 25.28 15.5655 26.7105 15.586 28.141C15.5933 28.5689 15.4435 28.6521 15.0838 28.6495C13.0829 28.6331 11.0829 28.6331 9.08361 28.6495C8.7516 28.6495 8.62243 28.5273 8.52826 28.1944C8.11899 26.7508 7.69524 25.3112 7.2425 23.882C7.09642 23.4229 7.23647 23.3553 7.61556 23.3618C8.84457 23.3709 10.076 23.3618 11.311 23.3618ZM23.8221 37.1676C22.5339 37.1676 21.2445 37.152 19.9588 37.1767C19.5302 37.1845 19.3394 37.0844 19.3551 36.5655C19.3901 35.4679 19.3757 34.369 19.3551 33.2701C19.3551 32.8917 19.4203 32.7265 19.8284 32.7291C22.445 32.7516 25.0607 32.7516 27.6757 32.7291C28.0475 32.7291 28.1248 32.8592 28.1188 33.2298C28.1007 34.369 28.0958 35.5095 28.1188 36.65C28.1272 37.0623 27.998 37.1793 27.6262 37.1702C26.3622 37.1546 25.0921 37.1676 23.8221 37.1676ZM34.8361 32.746C35.6642 32.746 36.4936 32.7525 37.3218 32.746C37.6031 32.746 37.7589 32.7603 37.6261 33.1518C37.2156 34.3586 36.8498 35.5823 36.4321 36.784C36.3849 36.8833 36.3165 36.9691 36.2325 37.0344C36.1486 37.0997 36.0515 37.1427 35.9492 37.1598C34.7359 37.191 33.5213 37.1689 32.308 37.1806C32.0038 37.1806 31.9108 37.0584 31.9144 36.7398C31.9277 35.5576 31.9326 34.3742 31.9144 33.1908C31.9144 32.824 32.0352 32.7356 32.3491 32.7434C33.1785 32.7538 34.0079 32.7408 34.8361 32.7408V32.746ZM12.7223 32.746C13.5288 32.746 14.3365 32.7577 15.1441 32.7395C15.458 32.733 15.5884 32.8214 15.5824 33.1882C15.5643 34.3677 15.5703 35.5485 15.5824 36.7281C15.5824 37.0402 15.4918 37.178 15.1876 37.1754C13.9803 37.1663 12.7646 37.1871 11.5549 37.1546C11.3943 37.1546 11.1541 36.9322 11.0973 36.758C10.7122 35.568 10.373 34.3586 10.0036 33.1648C9.89128 32.8097 9.99148 32.7356 10.303 32.7408C11.107 32.7499 11.9147 32.7408 12.7223 32.7408V32.746ZM15.8323 51.1698C16.3299 51.1729 16.8155 51.3345 17.2279 51.6343C17.6404 51.9342 17.9612 52.3588 18.15 52.8547C18.3389 53.3506 18.3872 53.8956 18.289 54.4211C18.1908 54.9465 17.9504 55.4289 17.5981 55.8075C17.2459 56.186 16.7975 56.4438 16.3094 56.5483C15.8214 56.6529 15.3156 56.5995 14.8557 56.3949C14.3957 56.1903 14.0023 55.8437 13.7249 55.3987C13.4476 54.9537 13.2987 54.4303 13.297 53.8943C13.2986 53.1711 13.5664 52.4781 14.0417 51.9674C14.517 51.4566 15.1609 51.1698 15.8323 51.1698ZM39.2462 53.8891C39.2446 54.4246 39.0957 54.9476 38.8184 55.3922C38.5411 55.8367 38.1479 56.1828 37.6882 56.3869C37.2285 56.591 36.723 56.6438 36.2355 56.5388C35.748 56.4338 35.3002 56.1756 34.9487 55.7968C34.5973 55.418 34.3578 54.9356 34.2605 54.4104C34.1633 53.8852 34.2126 53.3407 34.4022 52.8456C34.5919 52.3506 34.9134 51.9271 35.3262 51.6286C35.739 51.3301 36.2246 51.17 36.7218 51.1685C37.0535 51.1681 37.382 51.2383 37.6885 51.3749C37.995 51.5115 38.2735 51.7119 38.508 51.9646C38.7425 52.2173 38.9284 52.5174 39.0551 52.8476C39.1818 53.1779 39.2467 53.5318 39.2462 53.8891Z" fill="white" fill-opacity="0.5"/>
</svg>
