<svg width="37" height="36" viewBox="0 0 37 36" fill="none" xmlns="http://www.w3.org/2000/svg">
<path d="M0.497391 7.83881C0.932011 9.27844 1.3775 10.7157 1.80704 12.1577C2.94768 15.9811 4.08518 19.8044 5.21954 23.6278C5.47379 24.4861 5.8041 24.7468 6.63713 24.7468H22.8731C23.1063 24.7468 23.3975 24.6586 23.5562 24.7764C23.7148 24.8942 23.7315 25.2173 23.8097 25.4513L24.4515 27.3857C24.5964 27.8226 24.5964 27.8234 24.1827 27.8234H20.8507C16.1437 27.8234 11.437 27.8234 6.73057 27.8234C6.55742 27.8185 6.3842 27.829 6.21264 27.8546C5.99983 27.8937 5.80605 28.0106 5.66404 28.1858C5.52204 28.3609 5.44051 28.5835 5.43323 28.8159C5.41657 29.2708 5.69472 29.7211 6.12138 29.8116C6.45676 29.8834 6.81025 29.8568 7.15505 29.8794C7.22866 29.8906 7.30133 29.9081 7.37236 29.9317C7.34389 29.9969 7.31146 30.06 7.27529 30.1206C6.54658 31.1973 6.4017 32.36 6.80083 33.6201C7.51361 35.8744 10.3321 36.7569 12.046 35.2548C13.578 33.9182 13.8475 31.852 12.7211 30.1354C12.6821 30.0648 12.6484 29.991 12.6204 29.9146C12.6963 29.8974 12.7733 29.8859 12.8507 29.8802C15.117 29.8802 17.3836 29.8802 19.6504 29.8802C19.7367 29.8888 19.8222 29.9049 19.9061 29.9286C19.8641 30.0121 19.8271 30.0995 19.7779 30.1783C18.9644 31.4751 18.8673 32.8258 19.6047 34.1804C20.3023 35.4616 21.3939 36.0889 22.763 35.9898C24.1009 35.8931 25.0969 35.1315 25.6467 33.8113C26.174 32.5425 26.0263 31.3144 25.2845 30.1705C25.2376 30.0897 25.1951 30.0061 25.157 29.92C25.243 29.9018 25.3298 29.8885 25.4171 29.8802C25.5554 29.8732 25.6945 29.8802 25.8328 29.8802C26.6594 29.8615 27.0795 29.2279 26.8042 28.3875C26.3269 26.9339 25.8379 25.4849 25.3497 24.0359C25.194 23.574 25.1136 23.0637 24.6449 22.7968C24.6029 22.7726 24.6261 22.5534 24.6623 22.441C25.2355 20.6417 25.813 18.8439 26.395 17.0477C27.7109 12.9601 29.0254 8.87139 30.3384 4.78167C30.3715 4.6593 30.4319 4.54753 30.5144 4.45612C30.5968 4.36472 30.6988 4.29646 30.8114 4.25732C32.2452 3.66378 33.6746 3.05932 35.0997 2.44394C35.3448 2.34269 35.5671 2.18628 35.7516 1.98514C36.1044 1.57705 36.1065 0.987155 35.819 0.533811C35.5155 0.0554979 34.983 -0.129429 34.4369 0.0945121C33.4336 0.50416 32.4369 0.935657 31.438 1.35857C30.7535 1.64961 30.0689 1.96017 29.3772 2.22858C28.865 2.426 28.5594 2.78415 28.3949 3.33815C28.1378 4.20192 27.8263 5.04774 27.5815 5.91308C27.4801 6.27045 27.3192 6.34691 26.9976 6.34691C18.636 6.34015 10.2742 6.33677 1.91208 6.33677C1.20872 6.33677 0.737881 6.60519 0.497391 7.31915V7.83881ZM23.1411 8.80012C24.1922 8.80012 25.2418 8.81183 26.2935 8.7931C26.6115 8.78686 26.6239 8.88595 26.5261 9.16763C26.2841 9.86521 26.0596 10.5721 25.8459 11.2783C25.7821 11.489 25.701 11.5701 25.4837 11.5686C23.6361 11.5592 21.7885 11.5592 19.9408 11.5686C19.7177 11.5686 19.641 11.5054 19.646 11.2565C19.6605 10.548 19.662 9.83868 19.646 9.1294C19.6402 8.86879 19.7112 8.7931 19.9546 8.79622C21.0158 8.80793 22.0785 8.80012 23.1411 8.80012ZM6.53499 8.80012C7.54041 8.80012 8.54583 8.80715 9.55125 8.79466C9.77653 8.79466 9.85259 8.86098 9.84752 9.10677C9.83448 9.81527 9.83738 10.5253 9.84752 11.2346C9.84752 11.4609 9.81058 11.5678 9.56501 11.5662C7.79659 11.5558 6.02865 11.5558 4.2612 11.5662C4.07866 11.5662 3.9997 11.4999 3.94682 11.3119C3.73748 10.5753 3.5209 9.84102 3.28693 9.1138C3.19566 8.83055 3.27461 8.79076 3.52017 8.79388C4.52487 8.80793 5.52957 8.80012 6.53499 8.80012ZM14.745 17.1827C13.959 17.1827 13.1731 17.1749 12.3871 17.1874C12.1785 17.1874 12.1046 17.1312 12.1075 16.8971C12.1184 16.0388 12.117 15.1805 12.1075 14.3222C12.1075 14.1053 12.1582 14.014 12.3785 14.0155C13.9503 14.0233 15.5222 14.0233 17.0941 14.0155C17.3063 14.0155 17.3701 14.0858 17.3672 14.3128C17.3563 15.1711 17.3534 16.0294 17.3672 16.8877C17.3722 17.1507 17.2759 17.1905 17.0651 17.1874C16.2973 17.1757 15.5229 17.1827 14.745 17.1827ZM22.2972 14.0171C23.0831 14.0171 23.8698 14.0241 24.6558 14.0132C24.9049 14.0132 24.9455 14.0787 24.8622 14.3331C24.5724 15.1969 24.2936 16.0669 24.0234 16.94C23.9662 17.1242 23.8865 17.1882 23.7054 17.1866C22.4457 17.1788 21.1853 17.1757 19.9256 17.1866C19.6844 17.1866 19.6431 17.0937 19.646 16.8643C19.6562 16.0177 19.6583 15.1711 19.646 14.3245C19.646 14.0764 19.7185 14.0069 19.9408 14.0124C20.7253 14.0249 21.5113 14.0171 22.2972 14.0171ZM14.7573 11.5647C13.9837 11.5647 13.2108 11.5522 12.4393 11.5717C12.1727 11.5787 12.1061 11.4843 12.1119 11.212C12.1271 10.5043 12.1249 9.79498 12.1119 9.08649C12.1075 8.8524 12.1894 8.79622 12.3944 8.79778C13.9639 8.80558 15.5333 8.80558 17.1028 8.79778C17.3201 8.79778 17.3759 8.87113 17.3722 9.09507C17.3607 9.81605 17.3585 10.537 17.3722 11.258C17.3773 11.5085 17.2998 11.574 17.0767 11.5701C16.3038 11.5553 15.5302 11.5647 14.7573 11.5647ZM7.28398 14.0171C8.04529 14.0171 8.80515 14.0233 9.56864 14.0132C9.77581 14.0132 9.85186 14.078 9.84897 14.3097C9.83883 15.168 9.83665 16.0263 9.84897 16.8846C9.85331 17.1413 9.76349 17.1913 9.54763 17.1897C8.34711 17.1798 7.14708 17.1798 5.94753 17.1897C5.74833 17.1897 5.67082 17.1164 5.61432 16.9166C5.36876 16.0505 5.1145 15.1867 4.84287 14.3292C4.75522 14.0538 4.83925 14.0132 5.0667 14.0171C5.8041 14.0226 6.54296 14.0171 7.28398 14.0171ZM14.7906 22.3006C14.0177 22.3006 13.2441 22.2912 12.4726 22.306C12.2155 22.3107 12.101 22.2506 12.1104 21.9393C12.1314 21.2807 12.1228 20.6214 12.1104 19.9621C12.1104 19.735 12.1496 19.6359 12.3944 19.6375C13.9643 19.651 15.5338 19.651 17.1028 19.6375C17.3259 19.6375 17.3722 19.7155 17.3686 19.9379C17.3578 20.6214 17.3549 21.3057 17.3686 21.99C17.3737 22.2374 17.2962 22.3076 17.0731 22.3021C16.3147 22.2928 15.5526 22.3006 14.7906 22.3006ZM21.399 19.6476C21.8959 19.6476 22.3936 19.6515 22.8905 19.6476C23.0592 19.6476 23.1527 19.6562 23.073 19.8911C22.8267 20.6152 22.6072 21.3494 22.3566 22.0704C22.3283 22.13 22.2873 22.1814 22.2369 22.2206C22.1865 22.2598 22.1283 22.2856 22.0669 22.2959C21.3389 22.3146 20.6102 22.3013 19.8822 22.3084C19.6996 22.3084 19.6439 22.235 19.646 22.0439C19.654 21.3346 19.6569 20.6245 19.646 19.9145C19.646 19.6944 19.7185 19.6414 19.9068 19.646C20.4044 19.6523 20.9021 19.6445 21.399 19.6445V19.6476ZM8.13077 19.6476C8.61465 19.6476 9.09925 19.6546 9.58385 19.6437C9.77218 19.6398 9.85042 19.6929 9.84679 19.9129C9.83593 20.6206 9.83955 21.3291 9.84679 22.0368C9.84679 22.2241 9.79247 22.3068 9.60992 22.3052C8.88556 22.2998 8.15612 22.3123 7.43031 22.2928C7.33396 22.2928 7.18982 22.1593 7.15577 22.0548C6.9247 21.3408 6.72115 20.6152 6.49949 19.8989C6.43213 19.6858 6.49225 19.6414 6.67914 19.6445C7.16157 19.6499 7.64617 19.6445 8.13077 19.6445V19.6476ZM9.99674 30.7019C10.2953 30.7037 10.5866 30.8007 10.8341 30.9806C11.0816 31.1605 11.2741 31.4153 11.3874 31.7128C11.5007 32.0104 11.5297 32.3374 11.4708 32.6526C11.4118 32.9679 11.2676 33.2573 11.0562 33.4845C10.8449 33.7116 10.5758 33.8663 10.283 33.929C9.99021 33.9917 9.68671 33.9597 9.41076 33.837C9.13481 33.7142 8.89875 33.5062 8.73233 33.2392C8.56591 32.9722 8.47657 32.6582 8.47557 32.3366C8.47653 31.9027 8.63721 31.4869 8.92239 31.1804C9.20756 30.874 9.59393 30.7019 9.99674 30.7019ZM24.0451 32.3334C24.0441 32.6548 23.9548 32.9686 23.7884 33.2353C23.622 33.502 23.3861 33.7097 23.1103 33.8321C22.8345 33.9546 22.5312 33.9863 22.2387 33.9233C21.9461 33.8603 21.6775 33.7053 21.4666 33.4781C21.2557 33.2508 21.112 32.9613 21.0537 32.6462C20.9953 32.3311 21.0249 32.0044 21.1387 31.7074C21.2525 31.4103 21.4454 31.1562 21.6931 30.9772C21.9408 30.7981 22.2322 30.702 22.5305 30.7011C22.7295 30.7009 22.9266 30.743 23.1105 30.8249C23.2944 30.9069 23.4615 31.0272 23.6022 31.1788C23.7429 31.3304 23.8544 31.5104 23.9304 31.7086C24.0064 31.9067 24.0454 32.1191 24.0451 32.3334Z" fill="white"/>
</svg>
