<svg width="44" height="44" viewBox="0 0 44 44" fill="none" xmlns="http://www.w3.org/2000/svg">
<path d="M21.7305 0.858887C9.85189 0.858887 0.217773 10.7347 0.217773 22.9155C0.217773 32.6608 6.38117 40.9283 14.9307 43.8453C16.0045 44.0493 16.3523 43.3656 16.3523 42.7847V38.6785C10.3682 40.013 9.12225 36.0759 9.12225 36.0759C8.14342 33.5265 6.73254 32.8483 6.73254 32.8483C4.78026 31.4789 6.88134 31.5083 6.88134 31.5083C9.04157 31.6627 10.1782 33.782 10.1782 33.782C12.0964 37.153 15.2103 36.1788 16.4384 35.6145C16.6302 34.19 17.1877 33.2159 17.8044 32.6663C13.0268 32.1057 8.00358 30.2143 8.00358 21.7648C8.00358 19.3552 8.84437 17.3884 10.2194 15.8445C9.9971 15.2876 9.26029 13.0433 10.4291 10.0068C10.4291 10.0068 12.2362 9.415 16.3469 12.2676C18.0626 11.7787 19.9019 11.5343 21.7305 11.5251C23.5591 11.5343 25.4002 11.7787 27.1194 12.2676C31.2266 9.415 33.03 10.0068 33.03 10.0068C34.2007 13.0451 33.4639 15.2894 33.2416 15.8445C34.622 17.3884 35.4556 19.357 35.4556 21.7648C35.4556 30.2364 30.4234 32.102 25.6333 32.6479C26.4041 33.3317 27.1087 34.6734 27.1087 36.7321V42.7847C27.1087 43.3711 27.4529 44.0603 28.5446 43.8435C37.087 40.9228 43.2432 32.6571 43.2432 22.9155C43.2432 10.7347 33.6109 0.858887 21.7305 0.858887Z" fill="white"/>
</svg>
