<svg width="45" height="45" viewBox="0 0 45 45" fill="none" xmlns="http://www.w3.org/2000/svg">
<path d="M0 33.564V11.4228C0.0737399 10.9628 0.122166 10.4973 0.220119 10.0439C1.36584 4.99939 4.42549 1.76073 9.40789 0.370855C10.0682 0.187078 10.7506 0.12105 11.4242 0H33.5682C34.5103 0.194781 35.4821 0.299325 36.389 0.59865C41.6168 2.32307 44.9637 6.90758 44.9857 12.389C45.0121 19.1227 44.9956 25.8575 44.9857 32.5923C44.9857 34.7239 44.518 36.7586 43.4449 38.5997C40.9961 42.7814 37.3157 44.946 32.4654 44.9769C25.8189 45.0187 19.1713 44.9945 12.5237 44.9769C11.6895 44.9901 10.8564 44.9137 10.0385 44.7491C4.9978 43.6277 1.76095 40.5607 0.372001 35.5866C0.187101 34.9297 0.121065 34.2397 0 33.564ZM42.341 22.4923C42.341 19.2118 42.3564 15.9324 42.3311 12.6531C42.3375 11.8631 42.2593 11.0747 42.0978 10.3014C41.0522 5.70698 37.2419 2.66751 32.5006 2.65541C25.8376 2.6378 19.1746 2.6378 12.5116 2.65541C11.0808 2.65541 9.67643 2.8854 8.37883 3.51927C4.60929 5.36034 2.68655 8.41081 2.66124 12.5892C2.62272 19.192 2.64363 25.7948 2.66124 32.3975C2.65421 33.1592 2.73024 33.9193 2.88796 34.6645C3.92032 39.2468 7.70197 42.3049 12.4268 42.3281C19.1331 42.3603 25.8398 42.3603 32.5468 42.3281C35.8838 42.3137 38.5748 40.9382 40.547 38.231C41.805 36.5055 42.3399 34.5401 42.341 32.4195C42.3432 29.1101 42.3432 25.801 42.341 22.4923Z" fill="white"/>
<path d="M34.8283 22.5143C34.7876 29.347 29.1999 34.9055 22.4532 34.824C15.6053 34.7404 10.1266 29.2326 10.1651 22.4725C10.2047 15.6397 15.7935 10.0813 22.5391 10.1638C29.3859 10.2464 34.868 15.7553 34.8283 22.5143ZM22.4819 32.1664C25.0424 32.1664 27.4987 31.1527 29.3137 29.3468C31.1287 27.5409 32.1546 25.0899 32.1671 22.5297C32.1979 17.1969 27.8561 12.8325 22.5072 12.8203C19.9467 12.8203 17.4903 13.8341 15.6754 15.64C13.8604 17.4459 12.8344 19.8969 12.8219 22.4571C12.7911 27.7899 17.1319 32.1532 22.4819 32.1664Z" fill="white"/>
<path d="M35.5822 5.67947C36.5722 5.68441 37.52 6.08054 38.2189 6.78146C38.9179 7.48239 39.3112 8.43123 39.3133 9.42103C39.3023 11.4723 37.5963 13.1758 35.5657 13.1626C33.5351 13.1494 31.816 11.4305 31.8237 9.40452C31.8373 8.41508 32.2386 7.47047 32.9415 6.77386C33.6444 6.07725 34.5926 5.68428 35.5822 5.67947ZM36.6498 9.40892C36.6484 9.26616 36.6187 9.12508 36.5626 8.99382C36.5064 8.86255 36.4248 8.74369 36.3225 8.64408C36.2202 8.54446 36.0993 8.46605 35.9665 8.41336C35.8338 8.36067 35.692 8.33475 35.5492 8.33708C35.2691 8.34534 35.0027 8.46016 34.8043 8.65811C34.6059 8.85606 34.4905 9.12223 34.4817 9.40232C34.4871 9.68964 34.6026 9.96392 34.8043 10.1687C35.006 10.3734 35.2785 10.493 35.5657 10.5028C35.8536 10.4985 36.1284 10.3815 36.331 10.177C36.5337 9.97255 36.6481 9.6968 36.6498 9.40892Z" fill="white"/>
</svg>
