<svg width="32" height="31" viewBox="0 0 32 31" fill="none" xmlns="http://www.w3.org/2000/svg">
<path d="M29.8031 31C29.3903 30.8696 29.0849 30.589 28.787 30.2864C25.8109 27.2732 22.8342 24.2624 19.8571 21.2538C19.7877 21.175 19.725 21.0905 19.6695 21.0012C18.9656 21.4297 18.3472 21.8574 17.6854 22.2009C15.7473 23.2219 13.5571 23.6508 11.3819 23.4355C9.03029 23.2354 6.79839 22.3015 4.99511 20.7631C3.00051 19.0849 1.69179 16.9585 1.10121 14.4006C0.969136 13.825 0.894095 13.2358 0.793539 12.6526V10.8963C0.846818 10.5391 0.897847 10.1819 0.955629 9.82552C1.42614 6.92941 2.81215 4.55049 5.02738 2.68269C6.67107 1.2869 8.67642 0.396803 10.8056 0.117968C13.2979 -0.229353 15.6522 0.190263 17.8685 1.37682C19.8973 2.46756 21.5613 4.1409 22.6504 6.18588C23.7396 8.23086 24.2053 10.5559 23.9889 12.868C23.7983 14.914 23.0731 16.8721 21.8877 18.5419C21.7901 18.6815 21.6903 18.8195 21.5125 19.0515C21.616 19.1137 21.7376 19.1577 21.8194 19.2404C24.8601 22.3071 27.8978 25.3744 30.9324 28.4421C31.4742 28.9896 31.6153 29.5485 31.3774 30.1332C31.1928 30.5882 30.8221 30.8203 30.4019 31H29.8031ZM3.60159 11.7305C3.59259 16.6362 7.52926 20.6327 12.3949 20.6554C17.2606 20.6782 21.2341 16.6741 21.2386 11.7517C21.2431 6.82931 17.3177 2.85938 12.4392 2.83435C7.57279 2.80554 3.61135 6.79443 3.60159 11.7305Z" fill="white" fill-opacity="0.5"/>
</svg>
