<svg width="47" height="45" viewBox="0 0 47 45" fill="none" xmlns="http://www.w3.org/2000/svg">
<path d="M29.5618 45C28.7253 44.7992 27.9316 44.5197 27.2779 43.9514C26.6503 43.4089 26.1975 42.7062 25.9727 41.9259C24.329 36.4188 22.6866 30.9114 21.0453 25.4035C21.017 25.2654 20.9462 25.1386 20.8419 25.0394C20.7376 24.9402 20.6047 24.8732 20.4602 24.847C14.7523 23.2923 9.0456 21.7314 3.34012 20.1642C1.57745 19.6828 0.478387 18.6142 0.0785044 16.8952C0.0570715 16.8267 0.0308441 16.7596 0 16.6944V15.5519C0.060105 15.357 0.122663 15.1609 0.179088 14.9648C0.648888 13.5088 1.66209 12.5647 3.17452 12.1291C15.1366 8.69097 27.1 5.25678 39.0646 1.82651C41.0525 1.25584 43.0401 0.68048 45.0272 0.100419C45.6136 -0.0721908 46.1508 -0.0487061 46.601 0.381056C47.0512 0.810818 47.0745 1.32043 46.8966 1.88757C42.7179 15.2024 38.5424 28.5164 34.3702 41.8296C33.8391 43.5252 32.7057 44.582 30.8756 44.9307C30.8335 44.9459 30.7942 44.9673 30.759 44.9941L29.5618 45ZM40.7377 4.11153C40.4838 4.17846 40.3268 4.21604 40.171 4.26066L29.3312 7.3735C20.9484 9.77985 12.566 12.1846 4.18404 14.5879C3.22482 14.8638 2.75747 15.3746 2.75624 16.132C2.75502 16.8893 3.2334 17.3919 4.19876 17.6584C9.84127 19.1998 15.4801 20.7447 21.1153 22.2931C21.4734 22.3917 21.7077 22.3659 21.9911 22.0934C28.1013 16.2216 34.223 10.3568 40.3562 4.49902C40.4617 4.39687 40.5623 4.28884 40.7377 4.11153ZM42.6929 6.09478L42.5531 5.98675C42.4746 6.13058 42.3809 6.26632 42.2734 6.39186C36.164 12.2473 30.0496 18.0976 23.9304 23.9428C23.647 24.2129 23.6078 24.4336 23.712 24.7789C24.726 28.1356 25.7315 31.4946 26.7283 34.856C27.3625 36.9789 27.9905 39.1031 28.6394 41.2226C28.924 42.1561 29.8795 42.5952 30.7688 42.2359C31.3613 42.0011 31.6017 41.5102 31.7759 40.9537C35.0314 30.5478 38.2914 20.1431 41.5559 9.73954C41.9361 8.5254 42.3151 7.31048 42.6929 6.09478Z" fill="white"/>
</svg>
