<svg width="64" height="45" viewBox="0 0 64 45" fill="none" xmlns="http://www.w3.org/2000/svg">
<path d="M0 19.0344C0.094175 17.2859 0.187827 15.5375 0.280955 13.789C0.422218 11.1385 0.651377 8.49973 1.81915 6.02789C3.29455 2.91172 5.90006 1.09299 9.48499 0.737145C13.0275 0.384234 16.6015 0.22169 20.1582 0.1514C26.1226 0.0298584 32.0995 -0.0448244 38.0671 0.0298581C43.3032 0.0957544 48.5393 0.332981 53.7629 0.615603C58.6726 0.87626 62.19 3.69076 63.0925 8.17611C63.608 10.6726 63.8983 13.2051 63.9605 15.7469C64.0562 21.042 63.9605 26.3401 63.8585 31.6352C63.8083 34.148 63.4739 36.6418 62.3925 38.9921C60.9139 42.205 58.2566 44.0222 54.5885 44.34C50.7289 44.6753 46.8442 44.8745 42.9736 44.9257C36.0863 45.0165 29.1958 45.0326 22.3085 44.9257C18.0596 44.8569 13.8045 44.5992 9.56975 44.2419C5.07289 43.8626 2.04046 41.1535 1.02337 37.0196C0.291943 34.0543 0.293512 31.0363 0.136554 28.027C0.102023 27.3666 0.0455179 26.7091 0 26.0486V19.0344ZM33.0115 41.8228C39.0653 41.6148 45.9715 41.4142 52.8745 41.1243C56.8911 40.9544 58.7668 39.6218 59.5531 35.9565C60.1307 33.268 60.3159 30.4783 60.3803 27.7268C60.4839 23.426 60.4227 19.1164 60.261 14.817C60.186 12.6616 59.8971 10.5174 59.3977 8.41187C58.7573 5.74527 56.7561 4.2399 53.8477 4.05685C49.7071 3.79473 45.5571 3.55165 41.4087 3.48868C35.189 3.39106 28.9677 3.39106 22.7448 3.48868C18.554 3.55311 14.3601 3.7713 10.1882 4.07443C7.72235 4.25308 5.93616 5.48021 5.01796 7.73533C4.09975 9.99045 3.94436 12.3422 3.90669 14.6867C3.81879 19.9423 3.80153 25.2022 3.91768 30.4578C3.9632 32.5226 4.31949 34.6005 4.75113 36.6316C5.25339 38.9878 6.92029 40.4038 9.47557 40.7933C10.9134 41.0275 12.3655 41.1781 13.8233 41.2443C19.9337 41.4611 26.0425 41.6192 33.0115 41.8228Z" fill="white"/>
<path d="M23.9722 21.9279C23.9722 19.6679 23.9722 17.4084 23.9722 15.1494C23.9722 12.8064 25.9044 11.7228 28.0971 12.8372C32.6049 15.1274 37.1091 17.425 41.6096 19.7299C42.5953 20.2307 43.2451 20.9175 43.2263 22.0304C43.2059 23.1199 42.5373 23.7745 41.5751 24.2548C37.107 26.4904 32.64 28.7309 28.174 30.9762C25.8652 32.1301 23.9738 31.0553 23.9722 28.5966C23.9712 26.3757 23.9712 24.1528 23.9722 21.9279ZM27.7 16.5098V27.3344L38.3936 21.9689L27.7 16.5098Z" fill="white"/>
</svg>
